<?xml version="1.0" encoding="UTF-8" standalone="no"?>
<svg
   xmlns:dc="http://purl.org/dc/elements/1.1/"
   xmlns:cc="http://creativecommons.org/ns#"
   xmlns:rdf="http://www.w3.org/1999/02/22-rdf-syntax-ns#"
   xmlns:svg="http://www.w3.org/2000/svg"
   xmlns="http://www.w3.org/2000/svg"
   version="1.1"
   id="svg83628"
   viewBox="0 0 744.09448819 1052.3622047"
   height="297mm"
   width="210mm">
  <defs
     id="defs83630" />
  <metadata
     id="metadata83633">
    <rdf:RDF>
      <cc:Work
         rdf:about="">
        <dc:format>image/svg+xml</dc:format>
        <dc:type
           rdf:resource="http://purl.org/dc/dcmitype/StillImage" />
        <dc:title></dc:title>
      </cc:Work>
    </rdf:RDF>
  </metadata>
  <g
     id="layer1">
    <rect
       ry="55.51442"
       y="64.781479"
       x="72.419281"
       height="346.59003"
       width="346.59003"
       id="rect83520"
       style="fill:#000000;fill-opacity:1;stroke:#383838;stroke-width:3.68499994;stroke-linejoin:round;stroke-miterlimit:4;stroke-dasharray:none;stroke-opacity:1" />
    <path
       id="rect83520-0"
       d="m 144.6935,130.40354 2.54852,229.70143 c 0.12519,10.11497 -0.13847,20.5795 12.26925,20.62341 l 47.97751,0.1698 0,9.84704 -59.92512,-0.49143 c -30.75395,-0.2522 -55.514419,-24.75942 -55.514419,-55.51441 l 0,-204.30972 c 11.056779,-0.0716 34.317219,0.0297 52.644259,-0.0261 z"
       style="fill:#d7d7d7;fill-opacity:0.91823898;stroke:#d8d8d8;stroke-width:3.68499994;stroke-linejoin:round;stroke-miterlimit:4;stroke-dasharray:none;stroke-opacity:1" />
    <path
       id="rect83520-0-9"
       d="m 342.83081,130.40355 -2.54852,229.70142 c -0.12519,10.11499 0.13847,20.5799 -12.26925,20.62341 l -48.41329,0.1698 0,9.84704 60.3609,-0.49141 c 30.75396,-0.25038 55.51443,-24.75944 55.51443,-55.51443 l 0,-204.3097 c -11.05679,-0.0716 -34.31723,0.0298 -52.64427,-0.0261 z"
       style="fill:#d7d7d7;fill-opacity:0.91823898;stroke:#d8d8d8;stroke-width:3.68499994;stroke-linejoin:round;stroke-miterlimit:4;stroke-dasharray:none;stroke-opacity:1" />
    <rect
       ry="0"
       y="82.057022"
       x="207.2025"
       height="72.638"
       width="72.638"
       id="rect83565"
       style="fill:#202020;fill-opacity:0.91823898;stroke:#383838;stroke-width:1.01499999;stroke-linejoin:round;stroke-miterlimit:0;stroke-dasharray:none;stroke-opacity:1" />
    <path
       d="m 209.08091,125.43527 17.84224,-12.6714 0,0 13.14746,10.4084 15.33872,-4.93025 22.57798,16.31145"
       style="fill:none;fill-rule:evenodd;stroke:#445500;stroke-width:2.39999986;stroke-linecap:butt;stroke-linejoin:miter;stroke-miterlimit:4;stroke-dasharray:none;stroke-opacity:1"
       id="path83571" />
  </g>
</svg>
